Coordinates
version=1
nRows=19
nColumns=33
inDegrees=yes

Units are S.I. units (second, meters, Newtons, ...)
Angles are in degrees.

endheader
time	ground_thorax_rot_x	ground_thorax_rot_y	ground_thorax_rot_z	ground_thorax_tx	ground_thorax_ty	ground_thorax_tz	clav_prot_r	clav_elev_r	scapula_abduction_r	scapula_elevation_r	scapula_upward_rot_r	scapula_winging_r	shoulder_elv_r	plane_of_elev_r	axial_rot_r	elbow_flexion_r	pro_sup_r	wrist_flex_r	wrist_dev_r	clav_prot_l	clav_elev_l	scapula_abduction_l	scapula_elevation_l	scapula_upward_rot_l	scapula_winging_l	shoulder_elv_l	plane_of_elev_l	axial_rot_l	elbow_flexion_l	pro_sup_l	wrist_flex_l	wrist_dev_l
      8.19000000	    -27.52702976	    -33.67918463	     49.11538272	    -83.33359937	    785.85386667	     -5.89155919	      6.53661809	    -45.00000000	     35.47394876	    -45.00000000	    -45.00000000	  -2255.42509593	  -2637.03627430	    149.93172823	   -111.10851032	   1092.92522513	   -320.90241648	     17.95531630	      9.65637730	     15.12689816	     37.66886423	    -31.14738999	    -45.00000000	    -45.00000000	   2236.28093682	  -2619.15401833	    135.69839564	   -179.99999979	   -353.92551522	    400.92817676	     10.51071126	    -20.81554886
      8.20000000	    -27.72482572	    -33.45424629	     48.82660922	    -84.33163627	    786.24523393	     -5.99068238	      6.52876501	    -45.00000000	     35.65777339	    -45.00000000	    -44.81551935	  -2255.42410990	  -2636.94720467	    149.91324403	   -111.24266027	   1092.95710010	   -320.74012443	     18.02547066	      9.60478261	     15.14984124	     37.76589712	    -31.34461721	    -45.00000000	    -45.00000000	   2236.32583914	  -2619.02832994	    135.63476746	   -179.99999979	   -353.73673830	    400.86821957	     10.43700380	    -20.78294876
      8.21000000	    -27.76606695	    -33.42937739	     48.78622962	    -85.40196735	    786.64838517	     -6.09661395	      6.52162426	    -45.00000000	     35.48585479	    -45.00000000	    -45.00000000	  -2255.40292908	  -2636.80718994	    149.75471298	   -111.46880353	   1092.95647332	   -320.55223161	     17.98282487	      9.54356729	     15.21847133	     37.82463937	    -31.34826992	    -45.00000000	    -45.00000000	   2236.38810428	  -2618.87986073	    135.71086401	   -179.99999979	   -353.53069786	    400.78805351	     10.40337392	    -20.89836354
      8.22000000	    -27.95028613	    -33.23717924	     48.46827107	    -86.54839839	    787.06280482	     -6.20579926	      6.54277959	    -45.00000000	     35.56603793	    -45.00000000	    -44.67811100	  -2255.42523253	  -2636.75142521	    149.76804986	   -111.58062441	   1092.97459553	   -320.31779458	     18.01722277	      9.50218577	     15.24537174	     37.91592364	    -31.43670029	    -45.00000000	    -45.00000000	   2236.37598263	  -2618.71204923	    135.73952147	   -179.99999979	   -353.24399399	    400.69780784	     10.32004823	    -20.93408656
      8.23000000	    -28.09544519	    -33.05482109	     48.18744075	    -87.76962745	    787.48743692	     -6.31394485	      6.51104462	    -45.00000000	     35.63651902	    -45.00000000	    -44.55675919	  -2255.50201122	  -2636.56656184	    149.62334895	   -111.77079229	   1093.13805456	   -320.09668191	     18.05868011	      9.41019225	     15.27108542	     37.89405078	    -31.61182583	    -45.00000000	    -45.00000000	   2236.53332069	  -2618.61247318	    135.64509075	   -179.99999979	   -353.06829235	    400.60973799	     10.29532527	    -21.00908784
      8.24000000	    -28.35823985	    -32.80965058	     47.71627585	    -89.07483889	    787.92601534	     -6.41857176	      6.48925893	    -45.00000000	     35.86168165	    -45.00000000	    -44.12419280	  -2255.56578040	  -2636.56818429	    149.56916328	   -111.87990929	   1093.18443586	   -319.84823649	     18.06923817	      9.35485655	     15.25443192	     37.80389031	    -31.88613634	    -45.00000000	    -45.00000000	   2236.72571092	  -2618.54547224	    135.47595774	   -179.99999979	   -353.06495313	    400.54298259	     10.28927869	    -21.05255131
      8.25000000	    -28.55960416	    -32.59331972	     47.31182287	    -90.46211337	    788.37905450	     -6.51741410	      6.45210566	    -45.00000000	     35.96160708	    -45.00000000	    -43.79514663	  -2255.65887045	  -2636.43109508	    149.46343249	   -111.95832179	   1093.38061425	   -319.60230691	     18.11241884	      9.24946810	     15.30496012	     37.80594686	    -32.05035571	    -45.00000000	    -45.00000000	   2236.85672936	  -2618.45675665	    135.38355612	   -179.99999979	   -352.93624480	    400.44028057	     10.24025641	    -21.09406472
      8.26000000	    -28.79030244	    -32.33340071	     46.88205552	    -91.93046177	    788.84794652	     -6.61044097	      6.43033634	    -45.00000000	     36.10774912	    -45.00000000	    -43.35434205	  -2255.74272143	  -2636.35055962	    149.44087207	   -112.05791915	   1093.47762621	   -319.30854314	     18.14438752	      9.18250104	     15.33142494	     37.79369778	    -32.24431612	    -45.00000000	    -45.00000000	   2236.95640311	  -2618.34007813	    135.31273827	   -179.99999979	   -352.76094361	    400.31804059	     10.18780620	    -21.14399497
      8.27000000	    -28.98500316	    -32.11510992	     46.57739836	    -93.48136136	    789.33494549	     -6.69893888	      6.41014671	    -45.00000000	     36.13776853	    -45.00000000	    -43.10064857	  -2255.80428962	  -2636.21624512	    149.37052560	   -112.19452416	   1093.56119738	   -318.97401651	     18.15654367	      9.09295343	     15.38402160	     37.82916287	    -32.40326252	    -45.00000000	    -45.00000000	   2237.08690720	  -2618.18615695	    135.30027016	   -179.99999979	   -352.50289450	    400.16526700	     10.10769953	    -21.19534193
      8.28000000	    -29.23534703	    -31.83020034	     46.05866568	    -95.10497007	    789.83865086	     -6.78476195	      6.39658941	    -45.00000000	     36.34524246	    -45.00000000	    -42.48955954	  -2255.93713023	  -2636.13656985	    149.37987618	   -112.23919702	   1093.69348334	   -318.59970243	     18.19474811	      9.01851861	     15.40889467	     37.81938101	    -32.57860611	    -45.00000000	    -45.00000000	   2237.18024206	  -2618.07942524	    135.22168445	   -179.99999979	   -352.32206064	    400.01377252	     10.03827307	    -21.23862631
      8.29000000	    -29.25872689	    -31.69746808	     45.96545979	    -96.81116991	    790.36361234	     -6.87040000	      6.39659745	    -45.00000000	     36.29149690	    -45.00000000	    -42.53922272	  -2255.97321716	  -2635.73571711	    149.27077672	   -112.37150031	   1094.02305586	   -318.14918677	     18.28127556	      8.86708291	     15.55396683	     38.13166692	    -32.50601132	    -45.00000000	    -45.00000000	   2237.08150477	  -2617.82663923	    135.36626162	   -179.99999979	   -352.01520322	    399.80248870	      9.92075916	    -21.25816164
      8.30000000	    -29.56495163	    -31.31384440	     45.34555034	    -98.59421091	    790.90986762	     -6.95704756	      6.38365072	    -45.00000000	     36.48703283	    -45.00000000	    -41.84127050	  -2256.09274197	  -2635.69412829	    149.25026833	   -112.53387137	   1094.09636054	   -317.65328009	     18.30592437	      8.79984601	     15.52971638	     38.07302420	    -32.77916264	    -45.00000000	    -45.00000000	   2237.21295097	  -2617.67690863	    135.27301074	   -179.99999979	   -351.78162521	    399.63631202	      9.84476197	    -21.31964072
      8.31000000	    -29.78882993	    -31.03272712	     44.92318004	   -100.44600385	    791.47639788	     -7.04393507	      6.35130559	    -45.00000000	     36.59043347	    -45.00000000	    -41.50243623	  -2256.21008394	  -2635.58467221	    149.17441824	   -112.67289498	   1094.22012704	   -317.15064290	     18.31622721	      8.69051815	     15.55616315	     38.03090444	    -32.98836412	    -45.00000000	    -45.00000000	   2237.40897810	  -2617.58546473	    135.15658050	   -179.99999979	   -351.61158245	    399.46751342	      9.77674973	    -21.36320532
      8.32000000	    -30.04945282	    -30.72771031	     44.44202198	   -102.37157324	    792.06670825	     -7.12999978	      6.32358617	    -45.00000000	     36.73602608	    -45.00000000	    -41.08904365	  -2256.29887110	  -2635.49421796	    149.10344112	   -112.87121005	   1094.28049604	   -316.63453266	     18.31977731	      8.60548710	     15.55425774	     37.98919466	    -33.23218708	    -45.00000000	    -45.00000000	   2237.59587658	  -2617.44452433	    135.05754919	   -179.99999979	   -351.47963608	    399.30964072	      9.70224840	    -21.39775335
      8.33000000	    -30.15812761	    -30.49101327	     44.11914811	   -104.36371057	    792.68029168	     -7.21258676	      6.32274747	    -45.00000000	     36.81882742	    -45.00000000	    -40.81683469	  -2256.41781491	  -2635.21796727	    149.03762959	   -112.99119484	   1094.57464552	   -316.08144731	     18.38808771	      8.46677238	     15.63988065	     38.11578930	    -33.27679266	    -45.00000000	    -45.00000000	   2237.64624668	  -2617.28195182	    135.05559643	   -179.99999979	   -351.23670995	    399.10757038	      9.58516231	    -21.41668944
      8.34000000	    -30.47276577	    -30.08767403	     43.52877697	   -106.42075955	    793.31841446	     -7.28964450	      6.28990821	    -45.00000000	     36.98456159	    -45.00000000	    -40.22568171	  -2256.56067794	  -2635.13159922	    148.98077107	   -113.23604638	   1094.61578439	   -315.51265499	     18.38883808	      8.38232085	     15.60859253	     38.01945056	    -33.58248184	    -45.00000000	    -45.00000000	   2237.84908693	  -2617.14153161	    134.92742737	   -179.99999979	   -351.03989713	    398.92062362	      9.50666755	    -21.46990345
      8.35000000	    -30.61350573	    -29.82725121	     43.17599857	   -108.54442235	    793.98251984	     -7.35923151	      6.27194984	    -45.00000000	     37.06709919	    -45.00000000	    -39.93448486	  -2256.67125555	  -2634.89245313	    148.89201599	   -113.38461503	   1094.84543135	   -314.92792508	     18.42518334	      8.24191051	     15.68671432	     38.11762124	    -33.70017989	    -45.00000000	    -45.00000000	   2237.97870428	  -2616.98761501	    134.89926759	   -179.99999979	   -350.84802548	    398.68803031	      9.39465847	    -21.48018037
      8.36000000	    -30.84374284	    -29.49207583	     42.70272457	   -110.72718298	    794.67138388	     -7.41984508	      6.24913137	    -45.00000000	     37.19245825	    -45.00000000	    -39.51150989	  -2256.78674753	  -2634.74637757	    148.82094037	   -113.62151760	   1094.93219593	   -314.32219658	     18.43114669	      8.13794367	     15.68105989	     38.11382650	    -33.91148975	    -45.00000000	    -45.00000000	   2238.14079186	  -2616.84234239	    134.82262714	   -179.99999979	   -350.68793299	    398.45074946	      9.31160793	    -21.50945021
      8.37000000	    -31.00859832	    -29.21739743	     42.29262201	   -112.96854061	    795.38550622	     -7.47067020	      6.23879522	    -45.00000000	     37.32110487	    -45.00000000	    -39.17887699	  -2256.91048115	  -2634.51942327	    148.76621091	   -113.81729669	   1095.17198353	   -313.68659419	     18.48274694	      8.00919411	     15.74259848	     38.16771924	    -34.02689940	    -45.00000000	    -45.00000000	   2238.23897923	  -2616.67835712	    134.80190217	   -179.99999979	   -350.52655875	    398.16488874	      9.21193000	    -21.51170561
